<?xml version="1.0" encoding="UTF-8"?>
<svg width="980px" height="128px" viewBox="0 0 980 128" version="1.1" xmlns="http://www.w3.org/2000/svg" xmlns:xlink="http://www.w3.org/1999/xlink">
    <!-- Generator: Sketch 51.3 (57544) - http://www.bohemiancoding.com/sketch -->
    <title>dvcs</title>
    <desc>Created with Sketch.</desc>
    <defs></defs>
    <g id="dvcs" stroke="none" stroke-width="1" fill="none" fill-rule="evenodd">
        <path d="M406.936,41.4 L414.52,42.216 L414.52,77.832 L407.8,77.832 L407.416,75.048 C406.024,77.016 403.72,78.648 400.36,78.648 C394.024,78.648 391,73.224 391,65.016 C391,57.144 394.888,51.48 401.176,51.48 C403.432,51.48 405.4,52.296 406.936,53.88 L406.936,41.4 Z M403.192,57.048 C400.552,57.048 398.824,59.352 398.824,65.064 C398.824,71.352 400.456,73.08 402.76,73.08 C404.488,73.08 405.832,71.976 406.936,70.152 L406.936,59.16 C405.88,57.816 404.776,57.048 403.192,57.048 Z M445.288,52.344 L436.792,77.832 L427.864,77.832 L419.272,52.344 L427.48,52.344 L432.424,72.024 L437.608,52.344 L445.288,52.344 Z M463.576,72.648 C465.64,72.648 467.416,71.736 469.24,70.488 L472.6,75.288 C470.344,77.208 467.08,78.648 463.144,78.648 C454.888,78.648 449.992,73.224 449.992,65.256 C449.992,57.288 455.08,51.48 463.288,51.48 C467.128,51.48 470.056,52.584 472.6,54.696 L469.336,59.256 C467.608,58.056 465.688,57.336 463.624,57.336 C460.168,57.336 457.912,59.496 457.912,65.256 C457.912,70.92 460.312,72.648 463.576,72.648 Z M489.064,73.224 C491.608,73.224 493.288,72.456 493.288,70.824 C493.288,69.192 492.328,68.568 487.24,67.176 C482.584,65.928 479.368,63.912 479.368,59.4 C479.368,54.84 483.256,51.48 490.408,51.48 C494.968,51.48 498.232,52.776 500.728,54.6 L497.704,59.064 C495.592,57.768 493.096,56.904 490.648,56.904 C488.152,56.904 487,57.528 487,58.872 C487,60.168 488.008,60.744 493,62.136 C497.944,63.528 501.16,65.208 501.16,70.2 C501.16,75.816 495.592,78.648 489.112,78.648 C484.168,78.648 480.376,77.112 477.784,74.808 L481.576,70.536 C483.544,72.072 486.088,73.224 489.064,73.224 Z M513.352,73.272 C513.352,70.392 515.704,67.944 518.68,67.944 C521.656,67.944 524.008,70.392 524.008,73.272 C524.008,76.2 521.656,78.648 518.68,78.648 C515.704,78.648 513.352,76.2 513.352,73.272 Z M547.432,39 C550.072,39 551.896,40.872 551.896,43.272 C551.896,45.72 550.072,47.544 547.432,47.544 C544.792,47.544 542.92,45.72 542.92,43.272 C542.92,40.872 544.792,39 547.432,39 Z M551.992,52.344 L551.992,72.648 L558.52,72.648 L558.52,77.832 L537.208,77.832 L537.208,72.648 L544.408,72.648 L544.408,57.528 L537.448,57.528 L537.448,52.344 L551.992,52.344 Z M576.28,51.48 C584.152,51.48 588.664,56.856 588.664,65.016 C588.664,73.56 584.104,78.648 576.28,78.648 C568.456,78.648 563.896,73.656 563.896,65.064 C563.896,56.952 568.456,51.48 576.28,51.48 Z M576.28,57.096 C573.16,57.096 571.72,59.496 571.72,65.064 C571.72,70.728 573.16,73.08 576.28,73.08 C579.4,73.08 580.84,70.728 580.84,65.016 C580.84,59.496 579.4,57.096 576.28,57.096 Z" id="dvcs.io" fill="#212121"></path>
    </g>
</svg>